<svg width="15" height="15" viewBox="0 0 15 15" fill="none" xmlns="http://www.w3.org/2000/svg">
<path d="M7.22794 11.0956C7.50645 11.0956 7.73224 10.8698 7.73224 10.5913V6.55683C7.73224 6.27831 7.50645 6.05252 7.22794 6.05252C6.94943 6.05252 6.72363 6.27831 6.72363 6.55683V10.5913C6.72363 10.8698 6.94943 11.0956 7.22794 11.0956Z" fill="#222222"/>
<path d="M7.22905 3.86594C7.60042 3.86594 7.90145 4.16699 7.90145 4.53834C7.90145 4.9097 7.60042 5.21075 7.22905 5.21075C6.85768 5.21075 6.55664 4.9097 6.55664 4.53834C6.55664 4.16699 6.85768 3.86594 7.22905 3.86594Z" fill="#222222"/>
<path fill-rule="evenodd" clip-rule="evenodd" d="M0 7.22837C0 3.23625 3.23625 0 7.22837 0C11.2205 0 14.4567 3.23625 14.4567 7.22837C14.4567 11.2205 11.2205 14.4567 7.22837 14.4567C3.23625 14.4567 0 11.2205 0 7.22837ZM7.22837 1.00861C3.7933 1.00861 1.00861 3.7933 1.00861 7.22837C1.00861 10.6634 3.7933 13.4481 7.22837 13.4481C10.6634 13.4481 13.4481 10.6634 13.4481 7.22837C13.4481 3.7933 10.6634 1.00861 7.22837 1.00861Z" fill="#222222"/>
</svg>
