<svg width="21" height="23" viewBox="0 0 21 23" fill="none" xmlns="http://www.w3.org/2000/svg">
<path d="M9.75636 22.4831C9.35822 22.4245 8.96008 22.3836 8.5678 22.3133C6.60053 21.9679 4.87917 21.113 3.40957 19.7664C1.7409 18.2382 0.681154 16.3588 0.212756 14.1398C-0.72404 9.68998 1.50085 4.97673 5.54664 2.88065C5.96234 2.66401 6.39561 2.48836 6.82887 2.30686C7.23872 2.13706 7.61344 2.29515 7.75396 2.66401C7.88862 3.02702 7.70712 3.38417 7.28556 3.54226C5.19534 4.32682 3.59693 5.69103 2.49034 7.62317C0.610894 10.902 1.03831 15.141 3.52082 17.9865C4.99627 19.6786 6.84058 20.7266 9.05962 21.0603C13.8607 21.7805 18.2461 18.6539 19.2824 14.0754C20.3831 9.20987 17.3327 4.34439 12.4789 3.22023C12.4028 3.20267 12.3208 3.19096 12.2447 3.17339C12.2213 3.19681 12.2037 3.21438 12.1803 3.2378C12.2916 3.32562 12.4145 3.40174 12.5141 3.50127C12.8009 3.79402 12.8068 4.19801 12.5433 4.46149C12.274 4.72496 11.8759 4.71911 11.5831 4.42636C11.0445 3.89356 10.5117 3.36075 9.9847 2.82795C9.67439 2.51178 9.67439 2.13706 9.99056 1.8209C10.5175 1.28809 11.0445 0.761146 11.5773 0.240054C11.6709 0.146374 11.7997 0.0819696 11.911 0C12.0281 0 12.1452 0 12.2623 0C12.2857 0.0175649 12.3033 0.0351298 12.3267 0.0468398C12.7892 0.281039 12.8771 0.772856 12.5199 1.15343C12.4262 1.25296 12.3208 1.34664 12.2272 1.45203C12.1276 1.55157 12.0339 1.65696 11.9227 1.77406C12.151 1.8209 12.3384 1.85603 12.5258 1.89116C17.1512 2.80453 20.67 6.944 20.8164 11.6455C20.8808 13.6596 20.4534 15.5567 19.4229 17.2897C17.7952 20.0181 15.4181 21.7102 12.2857 22.3133C11.8876 22.3894 11.4777 22.4304 11.0737 22.4889C10.6346 22.4831 10.1955 22.4831 9.75636 22.4831Z" fill="#7445D1"/>
<path d="M3.64893 12.0788C3.64893 8.34331 6.68766 5.30458 10.4231 5.31043C14.1527 5.31629 17.1798 8.34331 17.1798 12.0729C17.1798 15.8084 14.141 18.8471 10.4056 18.8413C6.67595 18.8354 3.64893 15.8025 3.64893 12.0788ZM9.71468 15.703C9.71468 15.785 9.71468 15.8494 9.71468 15.9138C9.72639 16.3236 10.0016 16.6105 10.3821 16.6047C10.7627 16.6047 11.0438 16.3178 11.0262 15.9021C11.0203 15.703 11.0847 15.621 11.2721 15.5449C12.6656 14.9887 13.1515 13.1971 12.2323 12.0846C11.9103 11.6982 11.477 11.505 11.0203 11.3293C10.6163 11.1713 10.2182 10.978 9.83178 10.7731C9.7381 10.7263 9.65613 10.5916 9.63271 10.4862C9.56245 10.1291 9.8025 9.8012 10.1597 9.71337C10.5051 9.6314 10.8271 9.6841 11.1257 9.87146C11.5063 10.1115 11.8986 10.053 12.1094 9.71923C12.3201 9.37964 12.2148 8.9815 11.8166 8.75316C11.5707 8.61264 11.3072 8.50725 11.0438 8.38429C10.9969 7.80465 10.7978 7.54703 10.3821 7.54118C9.96059 7.54118 9.77323 7.78709 9.70297 8.45455C9.66784 8.47212 9.62685 8.48968 9.58587 8.50139C8.72519 8.84684 8.20995 9.69581 8.31534 10.615C8.39731 11.3176 8.81887 11.7685 9.42778 12.0612C9.89618 12.2837 10.3763 12.4711 10.8564 12.6701C11.1316 12.7814 11.3306 12.9629 11.3775 13.2673C11.4653 13.8001 11.0496 14.3447 10.511 14.3915C10.0367 14.4383 9.58001 14.3915 9.17016 14.1046C8.83643 13.8763 8.42658 13.9699 8.22751 14.2861C8.02845 14.6023 8.12798 14.9946 8.46757 15.217C8.83643 15.463 9.23457 15.6445 9.71468 15.703Z" fill="#7445D1"/>
</svg>
